#N canvas 512 38 1288 1103 12;
#X obj 296 315 throw~ main_bus;
#X obj 58 361 catch~ main_bus;
#X obj 58 385 *~ 0.5;
#X obj 58 450 dac~ 1 2;
#X obj 97 146 vsl 19 162 0 1 0 0 empty empty empty 0 -9 0 12 #fcfcfc #000000 #000000 0 1;
#X obj 97 316 pack 0 20;
#X obj 97 340 line;
#X obj 296 267 osc~ 200;
#X obj 296 291 *~ 0;
#X obj 58 409 hip~ 5;
#X obj 438 313 throw~ main_bus;
#X obj 438 265 osc~ 200;
#X obj 438 289 *~ 0;
#X obj 296 216 pack 0 20;
#X obj 296 240 line;
#X obj 439 216 pack 0 20;
#X obj 439 240 line;
#X obj 368 215 pack 0 20;
#X obj 368 239 line;
#X obj 515 215 pack 0 20;
#X obj 515 239 line;
#X obj 627 42 vsl 19 162 0 127 0 0 empty \$0_a_val empty 0 -9 0 12 #fcfcfc #000000 #000000 0 1;
#X obj 652 42 vsl 19 162 0 127 0 0 empty \$0_b_val empty 0 -9 0 12 #fcfcfc #000000 #000000 0 1;
#X obj 677 42 vsl 19 162 0 127 0 0 empty \$0_c_val empty 0 -9 0 12 #fcfcfc #000000 #000000 0 1;
#X obj 702 42 vsl 19 162 0 127 0 0 empty \$0_d_val empty 0 -9 0 12 #fcfcfc #000000 #000000 0 1;
#X obj 811 5 ctlin;
#X obj 790 136 pack 0 0;
#X obj 777 104 float;
#X obj 811 29 t b f;
#X obj 789 203 s \$0_a_val;
#X obj 788 224 s \$0_b_val;
#X obj 866 203 s \$0_c_val;
#X obj 866 224 s \$0_d_val;
#X obj 790 160 route 4 5 6 7;
#X obj 627 212 / 127;
#X floatatom 627 284 5 0 0 0 - - - 0;
#X obj 627 236 * 1000;
#X obj 627 260 + 20;
#X obj 677 211 / 127;
#X floatatom 677 283 5 0 0 0 - - - 0;
#X obj 677 235 * 1000;
#X obj 677 259 + 20;
#X obj 366 189 / 127;
#X obj 517 188 / 127;
#X obj 516 485 440;
#X obj 516 451 bng 19 250 50 0 empty empty empty 0 -10 0 12 #fcfcfc #000000 #000000;
#X connect 1 0 2 0;
#X connect 2 0 9 0;
#X connect 4 0 5 0;
#X connect 5 0 6 0;
#X connect 6 0 2 1;
#X connect 7 0 8 0;
#X connect 8 0 0 0;
#X connect 9 0 3 0;
#X connect 9 0 3 1;
#X connect 11 0 12 0;
#X connect 12 0 10 0;
#X connect 13 0 14 0;
#X connect 14 0 7 0;
#X connect 15 0 16 0;
#X connect 16 0 11 0;
#X connect 17 0 18 0;
#X connect 18 0 8 1;
#X connect 19 0 20 0;
#X connect 20 0 12 1;
#X connect 21 0 34 0;
#X connect 22 0 42 0;
#X connect 23 0 38 0;
#X connect 24 0 43 0;
#X connect 25 0 28 0;
#X connect 25 1 27 1;
#X connect 26 0 33 0;
#X connect 27 0 26 0;
#X connect 28 0 27 0;
#X connect 28 1 26 1;
#X connect 33 0 29 0;
#X connect 33 1 30 0;
#X connect 33 2 31 0;
#X connect 33 3 32 0;
#X connect 34 0 36 0;
#X connect 35 0 13 0;
#X connect 36 0 37 0;
#X connect 37 0 35 0;
#X connect 38 0 40 0;
#X connect 39 0 15 0;
#X connect 40 0 41 0;
#X connect 41 0 39 0;
#X connect 42 0 17 0;
#X connect 43 0 19 0;
#X connect 45 0 44 0;
