#N canvas 43 38 1622 1009 12;
#X obj 613 491 *~ 0.3;
#X obj 764 801 dac~;
#X floatatom 613 417 5 0 0 0 - - - 0;
#X obj 613 462 osc~ 100;
#X obj 771 758 *~;
#X obj 789 694 line~;
#X obj 793 573 del;
#X msg 825 538 1 \$1;
#X obj 795 499 t b l l;
#X obj 858 569 unpack 0 0 0;
#X msg 792 649 0 \$1;
#X obj 793 611 int;
#X obj 513 495 *~ 0.3;
#X floatatom 514 414 5 0 0 0 - - - 0;
#X obj 513 461 osc~ 100;
#X floatatom 512 312 5 0 0 0 - - - 0;
#X text 423 178 root frequency;
#X obj 595 161 unpack;
#X msg 351 101 5 6;
#X obj 626 262 /;
#X floatatom 626 297 5 0 0 0 - - - 0;
#X obj 611 382 *;
#X msg 260 102 2 3;
#X obj 594 193 t b b f;
#X msg 395 102 15 16;
#X msg 304 103 3 4;
#X msg 128 105 1 1;
#X msg 215 103 5 8;
#X text 225 72 E;
#X text 134 72 C;
#X text 181 74 D;
#X text 355 70 A;
#X text 266 75 F;
#X text 314 72 G;
#X text 408 72 B;
#X msg 130 25 1 2;
#X msg 178 23 2 3;
#X msg 274 21 4 5;
#X msg 369 23 6 7;
#X msg 226 23 3 2;
#X msg 321 23 5 3;
#X obj 265 626 ftom;
#X obj 264 705 % 12;
#X floatatom 264 734 5 0 0 0 - - - 0;
#X obj 103 633 ftom;
#X floatatom 105 735 5 0 0 0 - - - 0;
#X obj 434 237 mtof;
#X floatatom 479 236 5 0 0 0 - - - 0;
#X floatatom 433 206 5 0 0 0 - - - 0;
#X obj 434 266 * 1;
#X floatatom 104 825 5 0 0 0 - - - 0;
#X obj 98 380 text set notes;
#X obj 237 380 text define -k notes;
#A set C Cis D Dis E F Fis G Gis A Ais B \;;
#X obj 103 857 text get notes 0;
#X floatatom 104 766 5 0 0 0 - - - 0;
#X obj 104 794 t b f;
#X obj 96 318 loadbang;
#X floatatom 265 826 5 0 0 0 - - - 0;
#X obj 264 858 text get notes 0;
#X floatatom 265 767 5 0 0 0 - - - 0;
#X obj 265 795 t b f;
#X msg 104 918 C;
#X msg 104 887 set \$1;
#X msg 263 920 C;
#X msg 263 889 set \$1;
#X msg 417 24 7 8;
#X msg 97 349 list C Cis D Dis E F Fis G Gis A Ais B;
#X text 560 24 partials;
#X msg 461 24 8 9;
#X msg 506 24 9 10;
#X msg 173 104 9 8;
#X obj 397 648 ftom;
#X floatatom 397 677 10 0 0 0 - - - 0;
#X obj 499 649 ftom;
#X floatatom 499 678 10 0 0 0 - - - 0;
#X msg 466 100 4 3;
#X obj 397 705 * 100;
#X obj 499 706 * 100;
#X obj 397 744 -;
#X floatatom 397 773 10 0 0 0 - - - 0;
#X obj 105 706 % 12;
#X obj 99 674 + 0.5;
#X obj 266 663 + 0.5;
#X msg 804 -163 81 80;
#X msg 804 -136 128 125;
#X text 900 -163 syntactic comma;
#X text 938 -134 diesis;
#X msg 805 -30 81 64;
#X text 874 -35 pythagorean major third;
#X msg 807 56 16 9;
#X text 871 56 pythagorean minor seventh;
#X floatatom 549 436 5 0 0 0 - - - 0;
#X msg 807 83 15 8;
#X text 915 84 major seventh;
#X msg 805 0 40 27;
#X text 929 -2 grave fifth;
#X text 891 -111 acute minor second;
#X msg 804 -109 27 25;
#X msg 804 -82 9 8;
#X obj 1080 752 *~ 0.3;
#X floatatom 1080 696 5 0 0 0 - - - 0;
#X obj 1080 723 osc~ 100;
#X obj 1049 505 unpack;
#X obj 1079 604 /;
#X floatatom 1079 636 5 0 0 0 - - - 0;
#X obj 1080 667 *;
#X text 870 -83 pythagorean major second;
#X msg 1115 -160 81 80;
#X msg 1115 -133 128 125;
#X msg 1117 -29 81 64;
#X msg 1117 58 16 9;
#X msg 1117 85 15 8;
#X msg 1116 3 40 27;
#X msg 1115 -106 27 25;
#X msg 1115 -79 9 8;
#X msg 1118 113 2 1;
#X msg 1115 -187 1 1;
#X text 396 800 cent deviation;
#X text 782 441 attack \, hold \, release;
#X msg 804 -190 1 1;
#X obj 575 956 -;
#X floatatom 575 986 10 0 0 0 - - - 0;
#X text 673 983 beating;
#X obj 460 850 tgl 15 0 empty empty empty 17 7 0 10 #fcfcfc #000000 #000000 0 1;
#X obj 459 954 t b l;
#X obj 459 983 del 5;
#X obj 406 1079 *~;
#X obj 462 1041 line~;
#X obj 348 1029 osc~ 500;
#X obj 406 1125 dac~;
#X obj 460 896 metro 500;
#X obj 575 1014 t b f;
#X obj 574 1080 /;
#X floatatom 573 1111 5 0 0 0 - - - 0;
#X msg 574 1046 1000;
#X msg 459 925 0 \, 0.3 3;
#X msg 461 1011 0 50;
#X obj 847 736 -;
#X floatatom 847 766 10 0 0 0 - - - 0;
#X obj 847 794 t b f;
#X obj 846 860 /;
#X floatatom 845 891 5 0 0 0 - - - 0;
#X msg 846 826 1000;
#X text 231 983 play the beating pulse;
#X msg 806 27 3 2;
#X msg 1117 31 3 2;
#X msg 806 -55 5 4;
#X msg 1116 -52 5 4;
#X text 926 27 perfect fifth;
#X text 932 -56 major third;
#X text 503 1137 between root an tone;
#X text 839 917 between intervals;
#X msg 808 110 2 1;
#X msg 345 241 60;
#X obj 346 207 loadbang;
#X obj 396 616 f;
#X obj 498 576 t b f;
#X obj 397 577 t b f;
#X msg 1130 200 45 32;
#X msg 910 144 4 3;
#X msg 1130 224 21 16;
#X msg 910 168 45 32;
#X msg 1130 248 98 75;
#X msg 1130 272 75 56;
#X msg 910 214 98 75;
#X msg 911 237 75 56;
#X msg 1130 176 4 3;
#X msg 910 191 21 16;
#X msg 911 260 49 36;
#X msg 1130 295 49 36;
#X msg 793 473 500 6000 1000;
#X obj 1153 761 *~ 0.3;
#X floatatom 1158 698 5 0 0 0 - - - 0;
#X obj 1158 725 osc~ 100;
#X obj 1127 507 unpack;
#X obj 1157 606 /;
#X floatatom 1157 638 5 0 0 0 - - - 0;
#X obj 1158 669 *;
#X msg 1182 201 45 32;
#X msg 1182 225 21 16;
#X msg 1182 249 98 75;
#X msg 1182 273 75 56;
#X msg 1182 177 4 3;
#X msg 1182 296 49 36;
#X obj 1153 785 *~ 0;
#X obj 1189 785 tgl 19 0 empty empty empty 0 -10 0 12 #fcfcfc #000000 #000000 0 1;
#X connect 0 0 4 0;
#X connect 2 0 3 0;
#X connect 2 0 41 0;
#X connect 2 0 157 0;
#X connect 2 0 137 0;
#X connect 2 0 120 0;
#X connect 3 0 0 0;
#X connect 4 0 1 0;
#X connect 4 0 1 1;
#X connect 5 0 4 1;
#X connect 6 0 11 0;
#X connect 7 0 5 0;
#X connect 8 0 6 0;
#X connect 8 1 7 0;
#X connect 8 2 9 0;
#X connect 9 1 6 1;
#X connect 9 2 11 1;
#X connect 10 0 5 0;
#X connect 11 0 10 0;
#X connect 13 0 14 0;
#X connect 13 0 44 0;
#X connect 13 0 156 0;
#X connect 13 0 120 1;
#X connect 14 0 12 0;
#X connect 15 0 13 0;
#X connect 15 0 21 1;
#X connect 15 0 105 1;
#X connect 15 0 177 1;
#X connect 17 0 23 0;
#X connect 17 0 19 0;
#X connect 17 1 19 1;
#X connect 18 0 17 0;
#X connect 19 0 20 0;
#X connect 20 0 21 0;
#X connect 21 0 2 0;
#X connect 22 0 17 0;
#X connect 23 0 170 0;
#X connect 23 0 15 0;
#X connect 24 0 17 0;
#X connect 25 0 17 0;
#X connect 26 0 17 0;
#X connect 27 0 17 0;
#X connect 35 0 17 0;
#X connect 36 0 17 0;
#X connect 37 0 17 0;
#X connect 38 0 17 0;
#X connect 39 0 17 0;
#X connect 40 0 17 0;
#X connect 41 0 82 0;
#X connect 42 0 43 0;
#X connect 43 0 59 0;
#X connect 44 0 81 0;
#X connect 45 0 54 0;
#X connect 46 0 49 0;
#X connect 47 0 49 1;
#X connect 48 0 46 0;
#X connect 49 0 15 0;
#X connect 50 0 53 0;
#X connect 53 0 62 0;
#X connect 54 0 55 0;
#X connect 55 0 50 0;
#X connect 55 1 53 1;
#X connect 56 0 66 0;
#X connect 57 0 58 0;
#X connect 58 0 64 0;
#X connect 59 0 60 0;
#X connect 60 0 57 0;
#X connect 60 1 58 1;
#X connect 62 0 61 0;
#X connect 64 0 63 0;
#X connect 65 0 17 0;
#X connect 66 0 51 0;
#X connect 68 0 17 0;
#X connect 69 0 17 0;
#X connect 70 0 17 0;
#X connect 71 0 72 0;
#X connect 72 0 76 0;
#X connect 73 0 74 0;
#X connect 74 0 77 0;
#X connect 75 0 17 0;
#X connect 76 0 78 0;
#X connect 77 0 78 1;
#X connect 78 0 79 0;
#X connect 80 0 45 0;
#X connect 81 0 80 0;
#X connect 82 0 42 0;
#X connect 83 0 17 0;
#X connect 84 0 17 0;
#X connect 87 0 17 0;
#X connect 89 0 17 0;
#X connect 91 0 12 1;
#X connect 92 0 17 0;
#X connect 94 0 17 0;
#X connect 97 0 17 0;
#X connect 98 0 17 0;
#X connect 99 0 4 0;
#X connect 100 0 101 0;
#X connect 100 0 137 0;
#X connect 101 0 99 0;
#X connect 102 0 103 0;
#X connect 102 1 103 1;
#X connect 103 0 104 0;
#X connect 104 0 105 0;
#X connect 105 0 100 0;
#X connect 107 0 102 0;
#X connect 108 0 102 0;
#X connect 109 0 102 0;
#X connect 110 0 102 0;
#X connect 111 0 102 0;
#X connect 112 0 102 0;
#X connect 113 0 102 0;
#X connect 114 0 102 0;
#X connect 115 0 102 0;
#X connect 116 0 102 0;
#X connect 119 0 17 0;
#X connect 120 0 121 0;
#X connect 121 0 131 0;
#X connect 123 0 130 0;
#X connect 124 0 125 0;
#X connect 124 1 127 0;
#X connect 125 0 136 0;
#X connect 126 0 129 0;
#X connect 126 0 129 1;
#X connect 127 0 126 1;
#X connect 128 0 126 0;
#X connect 130 0 135 0;
#X connect 131 0 134 0;
#X connect 131 1 132 1;
#X connect 132 0 133 0;
#X connect 134 0 132 0;
#X connect 135 0 124 0;
#X connect 136 0 127 0;
#X connect 137 0 138 0;
#X connect 138 0 139 0;
#X connect 139 0 142 0;
#X connect 139 1 140 1;
#X connect 140 0 141 0;
#X connect 141 0 130 1;
#X connect 142 0 140 0;
#X connect 144 0 17 0;
#X connect 145 0 102 0;
#X connect 146 0 17 0;
#X connect 147 0 102 0;
#X connect 152 0 17 0;
#X connect 153 0 48 0;
#X connect 154 0 153 0;
#X connect 155 0 71 0;
#X connect 156 0 155 0;
#X connect 156 1 73 0;
#X connect 157 0 155 0;
#X connect 157 1 155 1;
#X connect 158 0 102 0;
#X connect 159 0 17 0;
#X connect 160 0 102 0;
#X connect 161 0 17 0;
#X connect 162 0 102 0;
#X connect 163 0 102 0;
#X connect 164 0 17 0;
#X connect 165 0 17 0;
#X connect 166 0 102 0;
#X connect 167 0 17 0;
#X connect 168 0 17 0;
#X connect 169 0 102 0;
#X connect 170 0 8 0;
#X connect 171 0 184 0;
#X connect 172 0 173 0;
#X connect 172 0 137 1;
#X connect 173 0 171 0;
#X connect 174 0 175 0;
#X connect 174 1 175 1;
#X connect 175 0 176 0;
#X connect 176 0 177 0;
#X connect 177 0 172 0;
#X connect 178 0 174 0;
#X connect 179 0 174 0;
#X connect 180 0 174 0;
#X connect 181 0 174 0;
#X connect 182 0 174 0;
#X connect 183 0 174 0;
#X connect 184 0 4 0;
#X connect 185 0 184 1;
