#N canvas 70 90 1730 985 12;
#X text 515 403 root frequency;
#X obj 372 365 unpack;
#X obj 371 397 t b b f;
#X obj 599 461 mtof;
#X floatatom 633 461 5 0 0 0 - - - 0;
#X floatatom 598 430 5 0 0 0 - root_freq - 0;
#X obj 599 490 * 1;
#X msg 475 60 81 80;
#X msg 475 87 128 125;
#X text 571 60 syntactic comma;
#X text 609 89 diesis;
#X msg 476 193 81 64;
#X text 545 188 pythagorean major third;
#X msg 478 279 16 9;
#X text 542 279 pythagorean minor seventh;
#X msg 478 306 15 8;
#X text 586 307 major seventh;
#X msg 476 223 40 27;
#X text 600 221 grave fifth;
#X text 562 112 acute minor second;
#X msg 475 114 27 25;
#X msg 475 141 9 8;
#X obj 701 712 *~ 0.3;
#X floatatom 672 629 5 0 0 0 - - pitchesA_hz 0;
#X obj 701 688 osc~ 100;
#X obj 673 428 unpack;
#X obj 704 489 /;
#X floatatom 704 521 5 0 0 0 - - - 0;
#X obj 705 552 *;
#X text 541 140 pythagorean major second;
#X msg 786 63 81 80;
#X msg 786 90 128 125;
#X msg 788 194 81 64;
#X msg 788 281 16 9;
#X msg 788 308 15 8;
#X msg 787 226 40 27;
#X msg 786 117 27 25;
#X msg 786 144 9 8;
#X msg 789 336 2 1;
#X msg 786 36 1 1;
#X msg 475 33 1 1;
#X obj 1096 592 -;
#X floatatom 1096 632 10 0 0 0 - - - 0;
#X obj 959 583 tgl 15 0 empty start_metro empty 17 7 0 10 #fcfcfc #000000 #000000 0 1;
#X obj 984 685 t b l;
#X obj 984 714 del 5;
#X obj 919 802 *~;
#X obj 987 772 line~;
#X obj 919 772 osc~ 500;
#X obj 920 834 dac~;
#X obj 983 625 metro 500;
#X obj 1096 660 t b f;
#X obj 1095 757 /;
#X floatatom 1094 788 5 0 0 0 - - - 0;
#X msg 1095 723 1000;
#X msg 984 656 0 \, 0.3 3;
#X msg 986 742 0 50;
#X msg 477 250 3 2;
#X msg 788 254 3 2;
#X msg 477 168 5 4;
#X msg 787 171 5 4;
#X text 597 250 perfect fifth;
#X text 603 167 major third;
#X msg 479 333 2 1;
#X obj 532 430 loadbang;
#X msg 89 98 21 16;
#X msg 90 74 98 75;
#X msg 92 146 75 56;
#X msg 89 121 4 3;
#X obj 801 711 *~ 0.3;
#X floatatom 833 604 5 0 0 0 - - pitchesB_hz 0;
#X obj 801 685 osc~ 100;
#X obj 751 430 unpack;
#X obj 782 491 /;
#X floatatom 782 523 5 0 0 0 - - - 0;
#X obj 783 554 *;
#X msg 179 97 21 16;
#X msg 180 73 98 75;
#X msg 182 145 75 56;
#X msg 179 120 4 3, f 4;
#X msg 93 52 5 4;
#X msg 183 51 5 4;
#X msg 183 167 3 2;
#X msg 93 168 3 2;
#X msg 183 190 5 3;
#X msg 93 191 5 3;
#X obj 674 460 t b f;
#N canvas 487 148 1041 668 stuff 0;
#X obj 595 161 unpack;
#X msg 351 101 5 6;
#X msg 260 102 2 3;
#X msg 395 102 15 16;
#X msg 304 103 3 4;
#X msg 128 105 1 1;
#X msg 215 103 5 8;
#X text 225 72 E;
#X text 134 72 C;
#X text 181 74 D;
#X text 355 70 A;
#X text 266 75 F;
#X text 314 72 G;
#X text 408 72 B;
#X msg 130 25 1 2;
#X msg 178 23 2 3;
#X msg 274 21 4 5;
#X msg 369 23 6 7;
#X msg 226 23 3 2;
#X msg 321 23 5 3;
#X msg 417 24 7 8;
#X text 560 24 partials;
#X msg 461 24 8 9;
#X msg 506 24 9 10;
#X msg 173 104 9 8;
#X msg 466 100 4 3;
#X obj 591 235 outlet;
#X obj 597 192 pack;
#X obj 98 380 text set notes;
#X obj 237 380 text define -k notes;
#A set C Cis D Dis E F Fis G Gis A Ais B \;;
#X obj 96 318 loadbang;
#X msg 97 349 list C Cis D Dis E F Fis G Gis A Ais B;
#X connect 0 0 27 0;
#X connect 0 1 27 1;
#X connect 1 0 0 0;
#X connect 2 0 0 0;
#X connect 3 0 0 0;
#X connect 4 0 0 0;
#X connect 5 0 0 0;
#X connect 6 0 0 0;
#X connect 14 0 0 0;
#X connect 15 0 0 0;
#X connect 16 0 0 0;
#X connect 17 0 0 0;
#X connect 18 0 0 0;
#X connect 19 0 0 0;
#X connect 20 0 0 0;
#X connect 22 0 0 0;
#X connect 23 0 0 0;
#X connect 24 0 0 0;
#X connect 25 0 0 0;
#X connect 27 0 26 0;
#X connect 30 0 31 0;
#X connect 31 0 28 0;
#X restore 302 369 pd stuff;
#X text 603 14 generic;
#X msg 94 215 7 4;
#X msg 183 213 7 4;
#X obj 50 309 s pitchesA;
#X obj 145 309 s pitchesB;
#X obj 672 402 r pitchesA;
#X obj 752 402 r pitchesB;
#X obj 750 455 t b f;
#X obj 254 60 s tone_length;
#X floatatom 254 31 5 0 0 0 - - - 0;
#X text 298 30 seconds;
#X msg 183 236 15 8;
#X msg 89 237 15 8;
#X msg 182 28 1 1;
#X msg 93 29 1 1;
#X msg 90 258 2 1;
#X msg 184 257 2 1;
#N canvas 92 130 1071 806 envelope 0;
#X obj 147 391 *~;
#X obj 168 350 line~;
#X obj 169 272 del;
#X msg 201 244 1 \$1;
#X obj 168 217 t b l l;
#X obj 214 272 unpack 0 0 0;
#X msg 169 321 0 \$1;
#X obj 169 296 int;
#X obj 235 144 r tone_length;
#X msg 167 116 500 1000;
#X obj 167 142 unpack;
#X obj 235 168 * 1000;
#X obj 167 194 pack 0 2000 0;
#X obj 166 80 inlet;
#X obj 149 459 outlet~;
#X obj 102 78 inlet~;
#X connect 0 0 14 0;
#X connect 1 0 0 1;
#X connect 2 0 7 0;
#X connect 3 0 1 0;
#X connect 4 0 2 0;
#X connect 4 1 3 0;
#X connect 4 2 5 0;
#X connect 5 1 2 1;
#X connect 5 2 7 1;
#X connect 6 0 1 0;
#X connect 7 0 6 0;
#X connect 8 0 11 0;
#X connect 9 0 10 0;
#X connect 10 0 12 0;
#X connect 10 1 12 2;
#X connect 11 0 12 1;
#X connect 12 0 4 0;
#X connect 13 0 9 0;
#X connect 15 0 0 0;
#X restore 702 741 pd envelope;
#X obj 751 826 dac~;
#N canvas 92 130 447 806 envelope 0;
#X obj 147 391 *~;
#X obj 168 350 line~;
#X obj 169 272 del;
#X msg 201 244 1 \$1;
#X obj 168 217 t b l l;
#X obj 214 272 unpack 0 0 0;
#X msg 169 321 0 \$1;
#X obj 169 296 int;
#X obj 235 144 r tone_length;
#X msg 167 116 500 1000;
#X obj 167 142 unpack;
#X obj 235 168 * 1000;
#X obj 167 194 pack 0 2000 0;
#X obj 166 80 inlet;
#X obj 149 459 outlet~;
#X obj 102 78 inlet~;
#X connect 0 0 14 0;
#X connect 1 0 0 1;
#X connect 2 0 7 0;
#X connect 3 0 1 0;
#X connect 4 0 2 0;
#X connect 4 1 3 0;
#X connect 4 2 5 0;
#X connect 5 1 2 1;
#X connect 5 2 7 1;
#X connect 6 0 1 0;
#X connect 7 0 6 0;
#X connect 8 0 11 0;
#X connect 9 0 10 0;
#X connect 10 0 12 0;
#X connect 10 1 12 2;
#X connect 11 0 12 1;
#X connect 12 0 4 0;
#X connect 13 0 9 0;
#X connect 15 0 0 0;
#X restore 801 741 pd envelope;
#X floatatom 255 87 5 0 1 0 - - - 0;
#X text 299 86 gain;
#X obj 255 116 s tone_gain;
#X obj 866 684 r tone_gain;
#X obj 701 659 r pitchesA_hz;
#X obj 801 658 r pitchesB_hz;
#X obj 983 554 r pitchesA_hz;
#X obj 1083 553 r pitchesB_hz;
#X msg 531 464 60;
#X floatatom 257 147 5 10 120 0 - - - 0;
#X text 301 146 root;
#X obj 257 204 tgl 19 0 start_metro empty empty 0 -10 0 12 #fcfcfc #000000 #000000 0 1;
#X floatatom 1133 723 5 0 0 0 - - beating_freq 0;
#X floatatom 257 230 8 0 0 0 - beating_freq - 0;
#X text 1104 613 beating freq;
#X obj 607 720 t b l;
#X obj 607 749 del 5;
#X obj 610 807 line~;
#X msg 607 691 0 \, 0.3 3;
#X msg 609 777 0 50;
#X obj 607 619 tgl 19 0 empty tempo_ctl empty 0 -10 0 12 #fcfcfc #000000 #000000 0 1;
#X obj 606 660 metro 1000;
#X obj 589 847 *~;
#X text 522 662 metronome;
#X obj 465 719 / 60;
#X msg 465 694 1000;
#X obj 464 754 *;
#X floatatom 256 275 5 0 0 0 - set_tempo tempo 0;
#X obj 467 660 t b f;
#X obj 466 628 r tempo;
#X text 254 298 tempo;
#X obj 299 273 tgl 19 0 tempo_ctl empty empty 0 -10 0 12 #fcfcfc #000000 #000000 0 1;
#X obj 531 797 osc~ 800;
#X obj 257 176 s root_freq;
#X floatatom 539 513 5 0 0 0 - - - 0;
#N canvas 100 526 450 495 seven_five_limit 1;
#X msg 94 52 5 4;
#X msg 237 52 5 4;
#X obj 48 385 s pitchesA;
#X obj 198 386 s pitchesB;
#X msg 236 29 1 1;
#X msg 94 29 1 1;
#X msg 91 74 8 5;
#X msg 235 75 8 5;
#X msg 90 98 25 16;
#X msg 233 98 25 16;
#X msg 90 121 32 25;
#X msg 233 121 32 25;
#X msg 93 146 7 4;
#X msg 236 146 7 4;
#X msg 94 168 8 7;
#X msg 237 168 8 7;
#X msg 94 191 49 32;
#X msg 237 191 49 32;
#X msg 95 215 64 49;
#X msg 237 214 64 49;
#X msg 90 237 7 5;
#X msg 237 237 7 5;
#X msg 91 258 35 32;
#X msg 238 258 35 32;
#X msg 92 305 40 21;
#X msg 239 303 40 21;
#X msg 93 281 64 35;
#X msg 240 281 64 35;
#X text 57 122 2;
#X text 288 214 2;
#X msg 94 327 2 1;
#X msg 236 327 2 1;
#X text 58 75 7;
#X text 287 98 7;
#X text 39 283 5;
#X text 282 303 5;
#X text 56 169 6;
#X text 286 256 6;
#X text 289 189 1;
#X text 58 97 1;
#X text 332 72 2;
#X text 332 51 1;
#X obj 349 51 bng 19 250 50 0 one empty empty 0 -10 0 12 #fcfcfc #000000 #000000;
#X obj 349 72 bng 19 250 50 0 two empty empty 0 -10 0 12 #fcfcfc #000000 #000000;
#X obj 349 156 bng 19 250 50 0 six empty empty 0 -10 0 12 #fcfcfc #000000 #000000;
#X obj 349 177 bng 19 250 50 0 seven empty empty 0 -10 0 12 #fcfcfc #000000 #000000;
#X obj 349 198 bng 19 250 50 0 empty empty empty 0 -10 0 12 #fcfcfc #000000 #000000;
#X obj 349 219 bng 19 250 50 0 empty empty empty 0 -10 0 12 #fcfcfc #000000 #000000;
#X obj 349 240 bng 19 250 50 0 empty empty empty 0 -10 0 12 #fcfcfc #000000 #000000;
#X obj 165 28 r one;
#X obj 165 50 r two;
#X text 64 30 3;
#X text 63 53 4;
#X text 286 124 3 \, 4;
#X obj 349 93 bng 19 250 50 0 three empty empty 0 -10 0 12 #fcfcfc #000000 #000000;
#X obj 349 114 bng 19 250 50 0 four empty empty 0 -10 0 12 #fcfcfc #000000 #000000;
#X obj 349 136 bng 19 250 50 0 five empty empty 0 -10 0 12 #fcfcfc #000000 #000000;
#X text 332 93 3;
#X text 331 115 4;
#X text 331 155 6;
#X text 331 176 7;
#X text 331 197 8;
#X text 330 219 9;
#X obj 164 74 r three;
#X obj 166 99 r four;
#X obj 166 123 r five;
#X text 331 135 5;
#X obj 166 146 r six;
#X obj 166 168 r seven;
#X connect 0 0 2 0;
#X connect 1 0 3 0;
#X connect 4 0 3 0;
#X connect 5 0 2 0;
#X connect 6 0 2 0;
#X connect 7 0 3 0;
#X connect 8 0 2 0;
#X connect 9 0 3 0;
#X connect 10 0 2 0;
#X connect 11 0 3 0;
#X connect 12 0 2 0;
#X connect 13 0 3 0;
#X connect 14 0 2 0;
#X connect 15 0 3 0;
#X connect 16 0 2 0;
#X connect 17 0 3 0;
#X connect 18 0 2 0;
#X connect 19 0 3 0;
#X connect 20 0 2 0;
#X connect 21 0 3 0;
#X connect 22 0 2 0;
#X connect 23 0 3 0;
#X connect 24 0 2 0;
#X connect 25 0 3 0;
#X connect 26 0 2 0;
#X connect 27 0 3 0;
#X connect 30 0 2 0;
#X connect 31 0 3 0;
#X connect 49 0 10 0;
#X connect 49 0 1 0;
#X connect 50 0 7 0;
#X connect 50 0 8 0;
#X connect 63 0 1 0;
#X connect 63 0 18 0;
#X connect 64 0 17 0;
#X connect 64 0 8 0;
#X connect 65 0 19 0;
#X connect 65 0 10 0;
#X connect 67 0 23 0;
#X connect 67 0 14 0;
#X connect 68 0 25 0;
#X connect 68 0 30 0;
#X restore 49 337 pd seven_five_limit;
#X obj 1125 694 abs;
#X text 283 205 beating;
#X text 254 253 metronome;
#X obj 493 464 60;
#X floatatom 493 488 5 0 0 0 - - set_tempo 0;
#X obj 673 606 float;
#X obj 783 580 t b f;
#X obj 783 604 del 50;
#X text 1030 808 between root and tone;
#X obj 1001 159 tgl 15 0 empty start_metro empty 17 7 0 10 #fcfcfc #000000 #000000 0 1;
#X obj 1026 261 t b l;
#X obj 1026 290 del 5;
#X obj 961 378 *~;
#X obj 1029 348 line~;
#X obj 1025 201 metro 500;
#X msg 1026 232 0 \, 0.3 3;
#X msg 1028 318 0 50;
#X obj 1081 461 dac~;
#X obj 1139 260 t b l;
#X obj 1139 289 del 5;
#X obj 1074 377 *~;
#X obj 1142 347 line~;
#X obj 1138 200 metro 500;
#X msg 1139 231 0 \, 0.3 3;
#X msg 1141 317 0 50;
#X obj 1251 258 t b l;
#X obj 1251 287 del 5;
#X obj 1186 375 *~;
#X obj 1254 345 line~;
#X obj 1186 345 osc~ 500;
#X obj 1250 198 metro 500;
#X msg 1251 229 0 \, 0.3 3;
#X msg 1253 315 0 50;
#X obj 1067 129 * 1;
#X obj 1106 130 * 1;
#X obj 1173 136 * 1;
#X floatatom 1265 54 5 0 0 0 - - - 0;
#X floatatom 934 202 5 0 0 0 - - - 0;
#X obj 1265 77 t b f f f b;
#X obj 961 348 osc~ 200;
#X obj 1074 347 osc~ 300;
#X obj 1364 255 t b l;
#X obj 1364 284 del 5;
#X obj 1299 372 *~;
#X obj 1367 342 line~;
#X obj 1363 195 metro 500;
#X msg 1364 226 0 \, 0.3 3;
#X msg 1366 312 0 50;
#X obj 1287 137 * 1;
#X obj 1299 342 osc~ 400;
#X obj 674 582 t b f;
#X msg 1004 51 127.4 101.9 68.1 122.3 146.3 77.83;
#X obj 1068 79 unpack 0 0 0 0 0 0;
#X obj 1441 253 t b l;
#X obj 1441 282 del 5;
#X obj 1444 340 line~;
#X obj 1440 193 metro 500;
#X msg 1441 224 0 \, 0.3 3;
#X msg 1443 310 0 50;
#X obj 1363 131 * 1;
#X obj 1554 250 t b l;
#X obj 1554 279 del 5;
#X obj 1489 367 *~;
#X obj 1557 337 line~;
#X obj 1553 190 metro 500;
#X msg 1554 221 0 \, 0.3 3;
#X msg 1556 307 0 50;
#X obj 1477 132 * 1;
#X obj 1389 404 *~;
#X obj 1389 374 osc~ 400;
#X obj 1489 337 osc~ 450;
#X connect 1 0 2 0;
#X connect 3 0 6 0;
#X connect 3 0 142 0;
#X connect 4 0 6 1;
#X connect 5 0 3 0;
#X connect 6 0 28 1;
#X connect 6 0 75 1;
#X connect 7 0 1 0;
#X connect 8 0 1 0;
#X connect 11 0 1 0;
#X connect 13 0 1 0;
#X connect 15 0 1 0;
#X connect 17 0 1 0;
#X connect 20 0 1 0;
#X connect 21 0 1 0;
#X connect 22 0 105 0;
#X connect 24 0 22 0;
#X connect 25 0 86 0;
#X connect 25 1 26 1;
#X connect 26 0 27 0;
#X connect 27 0 28 0;
#X connect 28 0 194 0;
#X connect 30 0 25 0;
#X connect 31 0 25 0;
#X connect 32 0 25 0;
#X connect 33 0 25 0;
#X connect 34 0 25 0;
#X connect 35 0 25 0;
#X connect 36 0 25 0;
#X connect 37 0 25 0;
#X connect 38 0 25 0;
#X connect 39 0 25 0;
#X connect 40 0 1 0;
#X connect 41 0 42 0;
#X connect 42 0 51 0;
#X connect 43 0 50 0;
#X connect 44 0 45 0;
#X connect 44 1 47 0;
#X connect 45 0 56 0;
#X connect 46 0 49 0;
#X connect 46 0 49 1;
#X connect 47 0 46 1;
#X connect 48 0 46 0;
#X connect 50 0 55 0;
#X connect 51 0 54 0;
#X connect 51 1 144 0;
#X connect 52 0 53 0;
#X connect 53 0 50 1;
#X connect 54 0 52 0;
#X connect 55 0 44 0;
#X connect 56 0 47 0;
#X connect 57 0 1 0;
#X connect 58 0 25 0;
#X connect 59 0 1 0;
#X connect 60 0 25 0;
#X connect 63 0 1 0;
#X connect 64 0 116 0;
#X connect 64 0 147 0;
#X connect 65 0 91 0;
#X connect 66 0 91 0;
#X connect 67 0 91 0;
#X connect 68 0 91 0;
#X connect 69 0 107 0;
#X connect 71 0 69 0;
#X connect 72 0 95 0;
#X connect 72 1 73 1;
#X connect 73 0 74 0;
#X connect 74 0 75 0;
#X connect 75 0 150 0;
#X connect 76 0 92 0;
#X connect 77 0 92 0;
#X connect 78 0 92 0;
#X connect 79 0 92 0;
#X connect 80 0 91 0;
#X connect 81 0 92 0;
#X connect 82 0 92 0;
#X connect 83 0 91 0;
#X connect 84 0 92 0;
#X connect 85 0 91 0;
#X connect 86 0 105 1;
#X connect 86 1 26 0;
#X connect 87 0 1 0;
#X connect 89 0 91 0;
#X connect 90 0 92 0;
#X connect 93 0 25 0;
#X connect 94 0 72 0;
#X connect 95 0 107 1;
#X connect 95 1 73 0;
#X connect 97 0 96 0;
#X connect 99 0 92 0;
#X connect 100 0 91 0;
#X connect 101 0 92 0;
#X connect 102 0 91 0;
#X connect 103 0 91 0;
#X connect 104 0 92 0;
#X connect 105 0 106 0;
#X connect 105 0 106 1;
#X connect 107 0 106 0;
#X connect 107 0 106 1;
#X connect 108 0 110 0;
#X connect 111 0 69 1;
#X connect 111 0 22 1;
#X connect 112 0 24 0;
#X connect 113 0 71 0;
#X connect 114 0 41 0;
#X connect 115 0 41 1;
#X connect 116 0 3 0;
#X connect 117 0 141 0;
#X connect 123 0 124 0;
#X connect 123 1 125 0;
#X connect 124 0 127 0;
#X connect 125 0 130 1;
#X connect 126 0 123 0;
#X connect 127 0 125 0;
#X connect 128 0 129 0;
#X connect 129 0 126 0;
#X connect 130 0 106 0;
#X connect 130 0 106 1;
#X connect 132 0 134 0;
#X connect 133 0 132 0;
#X connect 134 0 129 1;
#X connect 136 0 133 0;
#X connect 136 1 134 1;
#X connect 137 0 136 0;
#X connect 140 0 130 0;
#X connect 144 0 52 1;
#X connect 144 0 120 0;
#X connect 147 0 148 0;
#X connect 149 0 23 0;
#X connect 150 0 151 0;
#X connect 150 1 70 0;
#X connect 151 0 149 0;
#X connect 153 0 158 0;
#X connect 153 0 166 0;
#X connect 153 0 174 0;
#X connect 153 0 189 0;
#X connect 154 0 155 0;
#X connect 154 1 157 0;
#X connect 155 0 160 0;
#X connect 156 0 161 0;
#X connect 156 0 161 1;
#X connect 157 0 156 1;
#X connect 158 0 159 0;
#X connect 159 0 154 0;
#X connect 160 0 157 0;
#X connect 162 0 163 0;
#X connect 162 1 165 0;
#X connect 163 0 168 0;
#X connect 164 0 161 1;
#X connect 164 0 161 0;
#X connect 165 0 164 1;
#X connect 166 0 167 0;
#X connect 167 0 162 0;
#X connect 168 0 165 0;
#X connect 169 0 170 0;
#X connect 169 1 172 0;
#X connect 170 0 176 0;
#X connect 171 0 161 1;
#X connect 171 0 161 0;
#X connect 172 0 171 1;
#X connect 173 0 171 0;
#X connect 174 0 175 0;
#X connect 175 0 169 0;
#X connect 176 0 172 0;
#X connect 177 0 158 1;
#X connect 177 0 181 0;
#X connect 178 0 166 1;
#X connect 179 0 174 1;
#X connect 180 0 182 0;
#X connect 182 0 195 0;
#X connect 182 1 178 1;
#X connect 182 2 179 1;
#X connect 182 3 177 1;
#X connect 182 3 192 1;
#X connect 182 3 203 1;
#X connect 182 3 211 1;
#X connect 183 0 156 0;
#X connect 184 0 164 0;
#X connect 185 0 186 0;
#X connect 185 1 188 0;
#X connect 186 0 191 0;
#X connect 187 0 161 1;
#X connect 187 0 161 0;
#X connect 188 0 187 1;
#X connect 189 0 190 0;
#X connect 190 0 185 0;
#X connect 191 0 188 0;
#X connect 192 0 189 1;
#X connect 193 0 187 0;
#X connect 194 0 149 0;
#X connect 194 1 149 1;
#X connect 195 0 196 0;
#X connect 196 0 177 0;
#X connect 196 1 178 0;
#X connect 196 2 179 0;
#X connect 196 3 192 0;
#X connect 196 4 203 0;
#X connect 196 5 211 0;
#X connect 197 0 198 0;
#X connect 197 1 199 0;
#X connect 198 0 202 0;
#X connect 199 0 212 1;
#X connect 200 0 201 0;
#X connect 201 0 197 0;
#X connect 202 0 199 0;
#X connect 203 0 200 1;
#X connect 204 0 205 0;
#X connect 204 1 207 0;
#X connect 205 0 210 0;
#X connect 206 0 161 0;
#X connect 206 0 161 1;
#X connect 207 0 206 1;
#X connect 208 0 209 0;
#X connect 209 0 204 0;
#X connect 210 0 207 0;
#X connect 211 0 208 1;
#X connect 212 0 161 0;
#X connect 212 0 161 1;
#X connect 213 0 212 0;
#X connect 214 0 206 0;
